<?xml version="1.0" encoding="utf-8"?>
<!-- Generator: Adobe Illustrator 19.0.0, SVG Export Plug-In . SVG Version: 6.00 Build 0)  -->
<svg version="1.1" id="Layer_1" xmlns="http://www.w3.org/2000/svg" xmlns:xlink="http://www.w3.org/1999/xlink" x="0px" y="0px"
	 viewBox="0 0 80 80" style="enable-background:new 0 0 80 80;" xml:space="preserve">
<style type="text/css">
	.st0{fill:none;stroke:#FFFFFF;stroke-width:2.4;stroke-linecap:round;stroke-linejoin:round;stroke-miterlimit:10;}
	.st1{fill:none;stroke:#ED2224;stroke-width:2.4;stroke-linecap:round;stroke-linejoin:round;stroke-miterlimit:10;}
</style>
<g id="XMLID_6_">
	<circle id="XMLID_5_" class="st0" cx="40.2" cy="32.3" r="24.2"/>
	<circle id="XMLID_4_" class="st0" cx="40.2" cy="32.3" r="10.1"/>
	<path id="XMLID_3_" class="st0" d="M40.2,26.1c3.4,0,6.1,2.8,6.1,6.1"/>
	<path id="XMLID_2_" class="st0" d="M56.9,58.1c-0.3-0.5-0.9-0.6-1.4-0.3C51,60.5,45.8,62,40.2,62c-5.6,0-10.8-1.6-15.3-4.2
		c-0.5-0.3-1.1-0.1-1.4,0.3l-7.6,11.2c-0.7,1.1,0,2.6,1.4,2.6h45.3c1.3,0,2.1-1.4,1.4-2.5L56.9,58.1z"/>
	<line id="XMLID_1_" class="st1" x1="53.8" y1="18.7" x2="26.6" y2="45.9"/>
</g>
</svg>
