<?xml version="1.0" encoding="utf-8"?>
<!-- Generator: Adobe Illustrator 19.0.0, SVG Export Plug-In . SVG Version: 6.00 Build 0)  -->
<svg version="1.1" id="Layer_1" xmlns="http://www.w3.org/2000/svg" xmlns:xlink="http://www.w3.org/1999/xlink" x="0px" y="0px"
	 viewBox="0 0 80 80" style="enable-background:new 0 0 80 80;" xml:space="preserve">
<style type="text/css">
	.st0{fill:none;stroke:#FFFFFF;stroke-width:2.4;stroke-linecap:round;stroke-linejoin:round;stroke-miterlimit:10;}
</style>
<g id="XMLID_8_">
	<path id="XMLID_6_" class="st0" d="M51,18.3l9.1,33c0.5,1.8,2.3,2.8,4,2.4l0,0c1.9-0.4,3-2.3,2.5-4.2l-9-33
		c-0.5-1.8-2.4-2.9-4.2-2.4l-0.1,0C51.6,14.6,50.5,16.5,51,18.3z"/>
	<path id="XMLID_14_" class="st0" d="M59.9,50.8h-0.4l-29.1-0.4c-0.3,0-0.7-0.2-0.8-0.6l-4.1-14.1c-0.1-0.3,0-0.7,0.3-0.9l25.4-15.6
		"/>
	<path id="XMLID_3_" class="st0" d="M25.7,36.2l-0.3,0.1l-4.9,1.3c-1.3,0.3-2,1.6-1.7,2.9l2.3,8.6c0.3,1.2,1.6,2,2.9,1.6l5.4-1.5"/>
	<path id="XMLID_2_" class="st0" d="M18.7,40.1l-4,1.1c-1.2,0.3-1.9,1.6-1.6,2.8l1.3,4.7c0.3,1.2,1.6,1.9,2.8,1.6l4.1-1.1"/>
	<path id="XMLID_5_" class="st0" d="M60.4,26.6c0,0,5,0.4,6.3,5.5S64,39.8,64,39.8"/>
	<path id="XMLID_1_" class="st0" d="M25.3,50.4l1.5,12.5c0.2,2,2.1,3.5,4.1,3.2l2.9-0.4c2-0.3,3.4-2,3.2-4l-1.1-11.1"/>
</g>
</svg>
