<?xml version="1.0" encoding="utf-8"?>
<!-- Generator: Adobe Illustrator 19.0.0, SVG Export Plug-In . SVG Version: 6.00 Build 0)  -->
<svg version="1.1" id="Layer_1" xmlns="http://www.w3.org/2000/svg" xmlns:xlink="http://www.w3.org/1999/xlink" x="0px" y="0px"
	 viewBox="0 0 80 80" style="enable-background:new 0 0 80 80;" xml:space="preserve">
<style type="text/css">
	.st0{fill:none;stroke:#FFFFFF;stroke-width:2.4;stroke-linecap:round;stroke-linejoin:round;stroke-miterlimit:10;}
	.st1{fill:none;stroke:#ED2224;stroke-width:2.4;stroke-linecap:round;stroke-linejoin:round;stroke-miterlimit:10;}
</style>
<g>
	<g id="XMLID_8_">
		<path id="XMLID_6_" class="st0" d="M48.5,23.1l7.1,25.6c0.4,1.4,1.8,2.2,3.1,1.9l0,0c1.5-0.3,2.3-1.8,1.9-3.3l-7-25.6
			c-0.4-1.4-1.9-2.2-3.3-1.9h-0.1C49,20.3,48.1,21.7,48.5,23.1z"/>
		<path id="XMLID_14_" class="st0" d="M55.4,48.3h-0.3L32.6,48c-0.2,0-0.5-0.2-0.6-0.5l-3.2-10.9c-0.1-0.2,0-0.5,0.2-0.7l19.7-12.1"
			/>
		<path id="XMLID_3_" class="st0" d="M28.9,37l-0.2,0.1l-3.8,1c-1,0.2-1.5,1.2-1.3,2.2l1.8,6.7c0.2,0.9,1.2,1.5,2.2,1.2l4.2-1.2"/>
		<path id="XMLID_2_" class="st0" d="M23.5,40l-3.1,0.9c-0.9,0.2-1.5,1.2-1.2,2.2l1,3.6c0.2,0.9,1.2,1.5,2.2,1.2l3.2-0.9"/>
		<path id="XMLID_5_" class="st0" d="M55.8,29.6c0,0,3.9,0.3,4.9,4.3c1,4-2.1,6-2.1,6"/>
		<path id="XMLID_1_" class="st0" d="M28.6,48l1.2,9.7c0.2,1.5,1.6,2.7,3.2,2.5l2.2-0.3c1.5-0.2,2.6-1.5,2.5-3.1l-0.9-8.6"/>
	</g>
	<circle id="XMLID_12_" class="st1" cx="40" cy="40" r="34.5"/>
	<line id="XMLID_7_" class="st1" x1="58.4" y1="11.6" x2="23" y2="69.3"/>
</g>
</svg>
